<mxfile host="app.diagrams.net" modified="2023-05-31T08:52:15.317Z" agent="Mozilla/5.0 (Windows NT 10.0; Win64; x64) AppleWebKit/537.36 (KHTML, like Gecko) Chrome/113.0.0.0 Safari/537.36" etag="ZBaWHMQAqYjm2KpcRK9R" version="21.1.9" type="device">
  <diagram id="C5RBs43oDa-KdzZeNtuy" name="Page-1">
    <mxGraphModel dx="1194" dy="738" grid="0" gridSize="10" guides="1" tooltips="1" connect="1" arrows="1" fold="1" page="1" pageScale="1" pageWidth="827" pageHeight="1169" math="0" shadow="0">
      <root>
        <mxCell id="WIyWlLk6GJQsqaUBKTNV-0" />
        <mxCell id="WIyWlLk6GJQsqaUBKTNV-1" parent="WIyWlLk6GJQsqaUBKTNV-0" />
        <mxCell id="hzo_TGVIDgafTTq2jEPT-59" value="ConcreteProduct" style="html=1;" parent="WIyWlLk6GJQsqaUBKTNV-1" vertex="1">
          <mxGeometry x="72" y="330.5" width="101" height="35" as="geometry" />
        </mxCell>
        <mxCell id="kusxtE2EhlwemqQMvcZW-3" value="&lt;i&gt;«interface»&lt;br&gt;&lt;b&gt;Product&lt;/b&gt;&lt;/i&gt;" style="html=1;" parent="WIyWlLk6GJQsqaUBKTNV-1" vertex="1">
          <mxGeometry x="80.5" y="196.5" width="84" height="37" as="geometry" />
        </mxCell>
        <mxCell id="kusxtE2EhlwemqQMvcZW-4" value="" style="html=1;verticalAlign=bottom;labelBackgroundColor=none;startArrow=oval;startFill=0;startSize=8;endArrow=none;rounded=0;dashed=1;dashPattern=8 8;exitX=1;exitY=0.5;exitDx=0;exitDy=0;entryX=0;entryY=0.5;entryDx=0;entryDy=0;entryPerimeter=0;" parent="WIyWlLk6GJQsqaUBKTNV-1" source="KeTB2x-u-kuUVaQD-A1W-3" target="kusxtE2EhlwemqQMvcZW-5" edge="1">
          <mxGeometry x="-0.0549" y="19" relative="1" as="geometry">
            <mxPoint x="231.952" y="366.99" as="sourcePoint" />
            <mxPoint x="169" y="591" as="targetPoint" />
            <mxPoint x="-1" as="offset" />
          </mxGeometry>
        </mxCell>
        <mxCell id="kusxtE2EhlwemqQMvcZW-5" value="&lt;div style=&quot;border-color: var(--border-color);&quot;&gt;// some code...&lt;br style=&quot;border-color: var(--border-color);&quot;&gt;&lt;/div&gt;&lt;div style=&quot;border-color: var(--border-color);&quot;&gt;product = factoryMethod();&lt;br&gt;&lt;/div&gt;&lt;div style=&quot;border-color: var(--border-color);&quot;&gt;// some code...&lt;/div&gt;" style="shape=note2;boundedLbl=1;whiteSpace=wrap;html=1;size=25;verticalAlign=middle;align=left;labelPosition=center;verticalLabelPosition=middle;" parent="WIyWlLk6GJQsqaUBKTNV-1" vertex="1">
          <mxGeometry x="473" y="186" width="250" height="78" as="geometry" />
        </mxCell>
        <mxCell id="kusxtE2EhlwemqQMvcZW-7" value="" style="endArrow=block;endSize=10;endFill=0;shadow=0;strokeWidth=1;rounded=0;edgeStyle=elbowEdgeStyle;elbow=vertical;entryX=0.497;entryY=0.95;entryDx=0;entryDy=0;exitX=0.5;exitY=0;exitDx=0;exitDy=0;dashed=1;dashPattern=8 8;labelBackgroundColor=none;fontColor=default;entryPerimeter=0;" parent="WIyWlLk6GJQsqaUBKTNV-1" source="KeTB2x-u-kuUVaQD-A1W-4" target="KeTB2x-u-kuUVaQD-A1W-3" edge="1">
          <mxGeometry width="160" relative="1" as="geometry">
            <mxPoint x="497" y="492.5" as="sourcePoint" />
            <mxPoint x="497" y="397" as="targetPoint" />
          </mxGeometry>
        </mxCell>
        <mxCell id="kusxtE2EhlwemqQMvcZW-8" value="" style="endArrow=block;endSize=10;endFill=0;shadow=0;strokeWidth=1;rounded=0;edgeStyle=elbowEdgeStyle;elbow=vertical;entryX=0.5;entryY=1;entryDx=0;entryDy=0;dashed=1;dashPattern=8 8;labelBackgroundColor=none;fontColor=default;" parent="WIyWlLk6GJQsqaUBKTNV-1" source="hzo_TGVIDgafTTq2jEPT-59" target="kusxtE2EhlwemqQMvcZW-3" edge="1">
          <mxGeometry width="160" relative="1" as="geometry">
            <mxPoint x="-57.5" y="329" as="sourcePoint" />
            <mxPoint x="-57.5" y="233.5" as="targetPoint" />
          </mxGeometry>
        </mxCell>
        <mxCell id="kusxtE2EhlwemqQMvcZW-9" style="edgeStyle=orthogonalEdgeStyle;rounded=0;orthogonalLoop=1;jettySize=auto;html=1;dashed=1;dashPattern=8 8;endSize=10;endArrow=open;endFill=0;entryX=1;entryY=0.5;entryDx=0;entryDy=0;exitX=-0.006;exitY=-0.2;exitDx=0;exitDy=0;exitPerimeter=0;" parent="WIyWlLk6GJQsqaUBKTNV-1" source="KeTB2x-u-kuUVaQD-A1W-5" target="hzo_TGVIDgafTTq2jEPT-59" edge="1">
          <mxGeometry relative="1" as="geometry">
            <mxPoint x="574" y="558.5" as="sourcePoint" />
            <mxPoint x="699.5" y="533" as="targetPoint" />
          </mxGeometry>
        </mxCell>
        <mxCell id="KeTB2x-u-kuUVaQD-A1W-0" value="Creator" style="swimlane;fontStyle=3;align=center;verticalAlign=top;childLayout=stackLayout;horizontal=1;startSize=29;horizontalStack=0;resizeParent=1;resizeParentMax=0;resizeLast=0;collapsible=1;marginBottom=0;" parent="WIyWlLk6GJQsqaUBKTNV-1" vertex="1">
          <mxGeometry x="240" y="178" width="165" height="65" as="geometry" />
        </mxCell>
        <mxCell id="KeTB2x-u-kuUVaQD-A1W-1" value="+ factoryMethod(): Product" style="text;strokeColor=none;fillColor=none;align=left;verticalAlign=top;spacingLeft=4;spacingRight=4;overflow=hidden;rotatable=0;points=[[0,0.5],[1,0.5]];portConstraint=eastwest;fontStyle=2" parent="KeTB2x-u-kuUVaQD-A1W-0" vertex="1">
          <mxGeometry y="29" width="165" height="16" as="geometry" />
        </mxCell>
        <mxCell id="KeTB2x-u-kuUVaQD-A1W-3" value="+ anOperation()" style="text;strokeColor=none;fillColor=none;align=left;verticalAlign=top;spacingLeft=4;spacingRight=4;overflow=hidden;rotatable=0;points=[[0,0.5],[1,0.5]];portConstraint=eastwest;" parent="KeTB2x-u-kuUVaQD-A1W-0" vertex="1">
          <mxGeometry y="45" width="165" height="20" as="geometry" />
        </mxCell>
        <mxCell id="KeTB2x-u-kuUVaQD-A1W-4" value="ConcreteCreator" style="swimlane;fontStyle=1;align=center;verticalAlign=top;childLayout=stackLayout;horizontal=1;startSize=29;horizontalStack=0;resizeParent=1;resizeParentMax=0;resizeLast=0;collapsible=1;marginBottom=0;" parent="WIyWlLk6GJQsqaUBKTNV-1" vertex="1">
          <mxGeometry x="240" y="324" width="165" height="54" as="geometry" />
        </mxCell>
        <mxCell id="KeTB2x-u-kuUVaQD-A1W-5" value="+ factoryMethod(): Product" style="text;strokeColor=none;fillColor=none;align=left;verticalAlign=top;spacingLeft=4;spacingRight=4;overflow=hidden;rotatable=0;points=[[0,0.5],[1,0.5]];portConstraint=eastwest;fontStyle=0" parent="KeTB2x-u-kuUVaQD-A1W-4" vertex="1">
          <mxGeometry y="29" width="165" height="25" as="geometry" />
        </mxCell>
        <mxCell id="KeTB2x-u-kuUVaQD-A1W-7" value="&lt;div style=&quot;border-color: var(--border-color);&quot;&gt;// some code...&lt;br style=&quot;border-color: var(--border-color);&quot;&gt;&lt;/div&gt;&lt;div style=&quot;border-color: var(--border-color);&quot;&gt;product= new ConcreteProduct&lt;span style=&quot;background-color: initial;&quot;&gt;();&lt;/span&gt;&lt;/div&gt;&lt;div style=&quot;border-color: var(--border-color);&quot;&gt;// some code...&lt;/div&gt;&lt;div style=&quot;border-color: var(--border-color);&quot;&gt;return product;&lt;/div&gt;" style="shape=note2;boundedLbl=1;whiteSpace=wrap;html=1;size=25;verticalAlign=middle;align=left;labelPosition=center;verticalLabelPosition=middle;" parent="WIyWlLk6GJQsqaUBKTNV-1" vertex="1">
          <mxGeometry x="475" y="312" width="250" height="78" as="geometry" />
        </mxCell>
        <mxCell id="KeTB2x-u-kuUVaQD-A1W-9" style="edgeStyle=orthogonalEdgeStyle;rounded=0;orthogonalLoop=1;jettySize=auto;html=1;dashed=1;dashPattern=8 8;endSize=10;endArrow=open;endFill=0;entryX=1;entryY=0.5;entryDx=0;entryDy=0;exitX=0;exitY=0.5;exitDx=0;exitDy=0;" parent="WIyWlLk6GJQsqaUBKTNV-1" source="KeTB2x-u-kuUVaQD-A1W-1" target="kusxtE2EhlwemqQMvcZW-3" edge="1">
          <mxGeometry relative="1" as="geometry">
            <mxPoint x="249.01" y="358" as="sourcePoint" />
            <mxPoint x="183" y="358" as="targetPoint" />
          </mxGeometry>
        </mxCell>
        <mxCell id="KeTB2x-u-kuUVaQD-A1W-10" value="" style="html=1;verticalAlign=bottom;labelBackgroundColor=none;startArrow=oval;startFill=0;startSize=8;endArrow=none;rounded=0;dashed=1;dashPattern=8 8;exitX=1;exitY=0.5;exitDx=0;exitDy=0;entryX=0;entryY=0.5;entryDx=0;entryDy=0;entryPerimeter=0;" parent="WIyWlLk6GJQsqaUBKTNV-1" source="KeTB2x-u-kuUVaQD-A1W-5" target="KeTB2x-u-kuUVaQD-A1W-7" edge="1">
          <mxGeometry x="-0.0549" y="19" relative="1" as="geometry">
            <mxPoint x="415" y="243" as="sourcePoint" />
            <mxPoint x="483" y="235" as="targetPoint" />
            <mxPoint x="-1" as="offset" />
          </mxGeometry>
        </mxCell>
      </root>
    </mxGraphModel>
  </diagram>
</mxfile>
